<?xml version="1.0" encoding="UTF-8"?>
<!DOCTYPE svg PUBLIC "-//W3C//DTD SVG 1.1//EN" "http://www.w3.org/Graphics/SVG/1.1/DTD/svg11.dtd">
<!-- Creator: CorelDRAW 2017 -->
<svg xmlns="http://www.w3.org/2000/svg" xml:space="preserve" width="295mm" height="210mm" version="1.1" shape-rendering="geometricPrecision" text-rendering="geometricPrecision" image-rendering="optimizeQuality" fill-rule="evenodd" clip-rule="evenodd"
viewBox="0 0 29500 21000"
 xmlns:xlink="http://www.w3.org/1999/xlink">
 <g id="Слой_x0020_1">
  <metadata id="CorelCorpID_0Corel-Layer"/>
  <g id="_1812733799136">
   <g id="_1897194807104">
    <g id="_1507725245648">
     <path fill="#858B79" d="M14679.72 2871.03c1991.66,0 3606.55,1619.11 3606.55,3615.97 0,1996.85 -1614.89,3615.63 -3606.55,3615.63 -1991.65,0 -3606.54,-1618.78 -3606.54,-3615.63 0,-1996.86 1614.89,-3615.97 3606.54,-3615.97zm-1748.2 5060.15c1271.28,344.51 2563.12,368.78 3813.83,-62.51 -1405.94,1334.45 -2301.43,1409.27 -3813.83,62.51z"/>
     <path fill="#858B79" d="M10872.51 8966.7c-2485.51,-332.2 -2964.44,-3104.21 -957.52,-4255.1 45.1,-735.57 188.06,-1395.65 435.48,-1973.92 264.01,-616.18 645.75,-1139.93 1153.21,-1564.91 869.64,-727.91 1957.5,-1099.35 3056.97,-1120.3 1106.77,-20.95 2222.5,314.24 3135.91,999.93 583.08,437.95 993.68,986.62 1266.31,1623.76 255.71,597.89 387.38,1273.27 425.53,2006.83 2065.29,1132.95 1599.29,3948.84 -907.12,4283.7 16.25,-1542.62 304.8,-4479.56 -351.57,-6014.54 -220.56,-515.76 -548.91,-957.03 -1011.91,-1304.52 -742.27,-557.33 -1645.72,-829.68 -2539.56,-812.71 -882.57,16.62 -1757.84,316.9 -2460.97,905.48 -407.96,341.52 -717.07,767.82 -933.64,1273.6 -622.54,1453.85 -328.02,4336.57 -311.11,5952.69l-0.01 0.01z"/>
     <path fill="#858B79" d="M12154.08 10451.13c1682.22,-9.31 3364.77,-21.95 5046.97,-30.59 1854.02,-9.64 1879.23,890.86 2390.32,2308.45 919.39,2548.2 1877.23,5264 2813.87,7888.69l-3121.65 0c-393.02,-1044.15 -783.4,-2068.36 -1160.17,-2992.48 109.45,979.32 203.31,1989.22 300.83,2992.48l-7357.04 0c125.04,-997.28 264.34,-1994.88 340.63,-2992.48 -402.32,989.3 -796.99,1990.22 -1190.68,2992.48l-3106.06 0c1009.27,-2815.57 2003.93,-5627.8 3048.68,-8438.37 444.43,-1194.8 532.33,-1720.2 1994.32,-1728.18l-0.02 0z"/>
     <path fill="#858B79" d="M8456.67 8553.68c-457.71,-1035.5 -720.39,-2091.96 62.35,-3823.79 -1289.2,838.31 -1332.97,2982.49 -62.35,3823.79z"/>
     <path fill="#858B79" d="M6973.78 9508.73c-686.22,-1552.93 -1080.25,-3137.12 93.2,-5733.88 -1933.29,1256.99 -1998.63,4472.58 -93.2,5733.88z"/>
     <path fill="#858B79" d="M5215.94 10713.83c-975.1,-2205.69 -1534.28,-4455.61 132.34,-8144.08 -2746.2,1785.04 -2839.06,6352.72 -132.34,8144.08z"/>
     <path fill="#858B79" d="M2680.01 11960.81c-1273.6,-2881.07 -2004.26,-5820.02 172.8,-10638.1 -3586.98,2331.73 -3708.37,8298.04 -172.8,10638.1z"/>
     <path fill="#858B79" d="M21131.96 8553.68c457.71,-1035.5 720.39,-2091.96 -62.35,-3823.79 1289.2,838.31 1332.97,2982.49 62.35,3823.79z"/>
     <path fill="#858B79" d="M22614.84 9508.73c686.56,-1552.93 1080.25,-3137.12 -93.2,-5733.88 1933.29,1256.99 1998.63,4472.58 93.2,5733.88z"/>
     <path fill="#858B79" d="M24372.68 10713.83c975.1,-2205.69 1534.28,-4455.61 -132.34,-8144.08 2746.2,1785.04 2839.06,6352.72 132.34,8144.08z"/>
     <path fill="#858B79" d="M26908.61 11960.81c1273.6,-2881.07 2004.26,-5820.02 -172.8,-10638.1 3586.98,2331.73 3708.37,8298.04 172.8,10638.1z"/>
    </g>
    <g id="_1507725241904">
     <path fill="white" d="M14679.72 3204.89c1991.66,0 3606.55,1618.77 3606.55,3615.97 0,1996.86 -1614.89,3615.63 -3606.55,3615.63 -1991.65,0 -3606.54,-1618.77 -3606.54,-3615.63 0,-1997.2 1614.89,-3615.97 3606.54,-3615.97zm-1748.2 5059.83c1271.28,344.83 2563.12,369.11 3813.83,-62.19 -1405.94,1334.12 -2301.43,1409.27 -3813.83,62.19z"/>
     <path fill="white" d="M10872.51 9300.55c-2485.51,-332.2 -2964.44,-3104.21 -957.52,-4255.1 45.1,-735.89 188.06,-1395.65 435.48,-1973.92 264.01,-616.18 645.75,-1139.93 1153.21,-1564.91 869.64,-727.91 1957.5,-1099.35 3056.97,-1120.3 1106.77,-21.28 2222.5,314.24 3135.91,999.92 583.08,437.96 993.68,986.63 1266.31,1623.76 255.71,597.9 387.38,1273.28 425.53,2006.84 2065.29,1132.95 1599.29,3948.84 -907.12,4283.7 16.25,-1542.96 304.8,-4479.56 -351.57,-6014.54 -220.56,-515.76 -548.91,-957.03 -1011.91,-1304.53 -742.27,-557.32 -1645.72,-830 -2539.56,-813.04 -882.57,16.95 -1757.84,317.23 -2460.97,905.82 -407.96,341.52 -717.07,767.82 -933.64,1273.27 -622.54,1454.17 -328.02,4336.91 -311.11,5953.02l-0.01 0.01z"/>
     <path fill="white" d="M12154.08 10784.99c1682.22,-9.31 3364.77,-21.94 5046.97,-30.59 1854.02,-9.98 1879.23,890.52 2390.32,2308.45 919.39,2548.2 1877.23,5264 2813.87,7888.69l-3121.65 0c-393.02,-1044.15 -783.4,-2068.69 -1160.17,-2992.47 109.45,979.31 203.31,1989.21 300.83,2992.47l-7357.04 0c125.04,-997.6 264.34,-1994.87 340.63,-2992.47 -402.32,989.29 -796.99,1989.88 -1190.68,2992.47l-3106.06 0c1009.27,-2815.89 2003.93,-5627.8 3048.68,-8438.7 444.43,-1194.79 532.33,-1719.88 1994.32,-1727.85l-0.02 0z"/>
     <path fill="white" d="M8456.67 8887.55c-457.71,-1035.85 -720.39,-2091.97 62.35,-3823.8 -1289.2,837.98 -1332.97,2982.49 -62.35,3823.8z"/>
     <path fill="white" d="M6973.78 9842.59c-686.22,-1552.93 -1080.25,-3137.12 93.2,-5733.87 -1933.29,1256.98 -1998.63,4472.58 -93.2,5733.87z"/>
     <path fill="white" d="M5215.94 11047.69c-975.1,-2205.69 -1534.28,-4455.61 132.34,-8144.41 -2746.2,1785.38 -2839.06,6353.04 -132.34,8144.41z"/>
     <path fill="white" d="M2680.01 12294.69c-1273.6,-2881.07 -2004.26,-5820.33 172.8,-10638.09 -3586.98,2331.73 -3708.37,8298.04 -172.8,10638.09z"/>
     <path fill="white" d="M21131.96 8887.55c457.71,-1035.85 720.39,-2091.97 -62.35,-3823.8 1289.2,837.98 1332.97,2982.49 62.35,3823.8z"/>
     <path fill="white" d="M22614.84 9842.59c686.56,-1552.93 1080.25,-3137.12 -93.2,-5733.87 1933.29,1256.98 1998.63,4472.58 93.2,5733.87z"/>
     <path fill="white" d="M24372.68 11047.69c975.1,-2205.69 1534.28,-4455.61 -132.34,-8144.41 2746.2,1785.38 2839.06,6353.04 132.34,8144.41z"/>
     <path fill="white" d="M26908.61 12294.69c1273.6,-2881.07 2004.26,-5820.33 -172.8,-10638.09 3586.98,2331.73 3708.37,8298.04 172.8,10638.09z"/>
    </g>
   </g>
  </g>
 </g>
 <g id="Слой_x0020_1_0">
  <metadata id="CorelCorpID_1Corel-Layer"/>
  <g id="_1897102463312">
   <g id="_1507725233392">
    <path fill="#858B79" d="M-2001.65 27004.25c760.87,0 1377.46,770.23 1377.46,1719.78 0,183.51 -23.05,359.91 -65.47,525.87 -471.97,117.19 -952.27,75.89 -1426.89,-84.66 522.05,579.24 887.11,706.85 1306.65,422.03 -238.49,512.1 -682.72,856.54 -1191.75,856.54 -760.55,0 -1377.14,-769.8 -1377.14,-1719.78 0,-949.55 616.59,-1719.78 1377.14,-1719.78z"/>
    <path fill="#858B79" d="M-3150.99 30824.99c781.92,-8.34 1517.74,-8.34 2299.32,0 587.53,6.24 1131.63,104.26 1238.85,693.92 308.29,1697.26 575.17,3346.57 772.25,4722.75 104.53,729.37 -898.83,1075.08 -1063.83,324.87 -302.96,-1379.11 -424.88,-1898.29 -595.88,-2955.02 -92.53,1165.58 -83.84,2261.51 -27.06,3428.74 148.96,1558.39 310.97,3114.7 447.56,4674.35 72.15,825.73 115.91,1712.7 -753.85,1744 -710.44,25.84 -781.91,-717.7 -852.72,-1428.71 -122.92,-1232.28 -197.41,-2605.54 -314.97,-3853.27 -117.57,1247.73 -192.06,2620.99 -314.98,3853.27 -70.81,711.01 -142.28,1454.57 -852.72,1428.71 -869.43,-31.28 -826,-918.27 -753.52,-1744 136.27,-1559.65 298.26,-3115.96 447.23,-4674.35 56.79,-1167.25 65.8,-2263.16 -26.73,-3428.74 -115.89,715.62 -242.14,1967.92 -917.52,2127.21 -759.88,179.33 -1376.45,-1980.41 -1652.03,-2718.53 -250.5,-671.42 648.34,-1326.55 961.64,-654.31 109.55,234.77 226.46,643.46 327.32,964.14 139.62,444.55 131.61,481.26 182.04,0 53.79,-510.84 105.2,-1228.52 211.11,-1811.11 106.89,-589.66 650.97,-687.68 1238.5,-693.92l-0.01 0z"/>
    <path fill="#858B79" d="M10676.05 27004.25c760.88,0 1377.47,770.23 1377.47,1719.78 0,949.98 -616.59,1719.78 -1377.47,1719.78 -760.54,0 -1377.13,-769.8 -1377.13,-1719.78 0,-949.55 616.59,-1719.78 1377.13,-1719.78zm-871.09 2386.19c594.55,200.58 1198.77,214.76 1783.62,-36.28 -657.32,776.91 -1076.18,820.71 -1783.62,36.28z"/>
    <path fill="#858B79" d="M9526.72 30824.99l1141.32 -12.52 0 0 8.34 0 8.69 0 0 0 1140.99 12.52c587.51,6.24 1131.63,104.26 1238.85,693.92 308.29,1697.26 575.15,3346.57 772.23,4722.75 104.55,729.37 -898.83,1075.08 -1063.83,324.87 -302.94,-1379.11 -424.86,-1898.29 -595.88,-2955.02 -92.52,1165.58 -83.83,2261.51 -27.04,3428.74 148.96,1558.39 310.96,3114.7 447.56,4674.35 72.15,825.73 115.9,1712.7 -753.85,1744 -710.44,25.84 -781.93,-717.7 -852.74,-1428.71 -122.92,-1232.28 -197.39,-2605.54 -314.96,-3853.27 -117.56,1247.73 -192.07,2620.99 -314.97,3853.27 -70.81,711.01 -142.29,1454.57 -852.73,1428.71 -869.42,-31.28 -826.01,-918.27 -753.53,-1744 136.28,-1559.65 298.28,-3115.96 447.25,-4674.35 56.78,-1167.25 65.8,-2263.16 -27.06,-3428.74 -171.02,1056.73 -292.92,1575.91 -595.88,2955.02 -164.98,750.21 -1168.36,404.5 -1063.83,-324.87 197.41,-1376.18 463.94,-3025.47 772.25,-4722.75 107.2,-589.66 651.32,-687.68 1238.84,-693.92l-0.02 0z"/>
    <g>
     <path fill="#858B79" d="M15994.51 27004.25c760.88,0 1377.46,770.23 1377.46,1719.78 0,949.98 -616.58,1719.78 -1377.46,1719.78 -760.87,0 -1377.46,-769.8 -1377.46,-1719.78 0,-949.55 616.59,-1719.78 1377.46,-1719.78zm-875.11 2386.19c594.54,200.58 1198.76,214.76 1783.63,-36.28 -657.34,776.91 -1076.2,820.71 -1783.63,36.28z"/>
     <path fill="#858B79" d="M14845.18 30824.99l1140.98 -12.52 0 0 8.69 0 8.35 0 0 0 1141.31 12.52c587.52,6.24 1131.64,104.26 1238.51,693.92 308.64,1697.26 575.17,3346.57 772.58,4722.75 104.2,729.37 -899.16,1075.08 -1063.83,324.87 -302.96,-1379.11 -424.86,-1898.29 -596.21,-2955.02 -92.53,1165.58 -83.51,2261.51 -26.73,3428.74 148.97,1558.39 310.97,3114.7 447.25,4674.35 72.48,825.73 115.9,1712.7 -753.53,1744 -710.43,25.84 -781.92,-717.7 -852.73,-1428.71 -122.92,-1232.28 -197.41,-2605.54 -314.97,-3853.27 -117.57,1247.73 -192.06,2620.99 -314.96,3853.27 -70.81,711.01 -142.3,1454.57 -852.74,1428.71 -869.76,-31.28 -826,-918.27 -753.85,-1744 136.6,-1559.65 298.61,-3115.96 447.56,-4674.35 56.8,-1167.25 65.49,-2263.16 -27.04,-3428.74 -171.02,1056.73 -292.94,1575.91 -595.88,2955.02 -165,750.21 -1168.38,404.5 -1063.83,-324.87 197.06,-1376.18 463.94,-3025.47 772.25,-4722.75 107.2,-589.66 651.32,-687.68 1238.84,-693.92l-0.02 0z"/>
    </g>
    <g>
     <path fill="#858B79" d="M21291.92 27004.25c760.89,0 1377.46,770.23 1377.46,1719.78 0,949.98 -616.57,1719.78 -1377.46,1719.78 -760.55,0 -1377.45,-769.8 -1377.45,-1719.78 0,-949.55 616.92,-1719.78 1377.45,-1719.78zm-914.17 2386.19c594.52,200.58 1198.75,214.76 1783.61,-36.28 -657.32,776.91 -1076.18,820.71 -1783.61,36.28z"/>
     <path fill="#858B79" d="M20142.59 30824.99l1141.32 -12.52 0 0 8.34 0 8.69 0 0 0 1140.99 12.52c587.52,6.24 1131.62,104.26 1238.84,693.92 308.29,1697.26 575.17,3346.57 772.24,4722.75 104.53,729.37 -898.82,1075.08 -1063.82,324.87 -302.97,-1379.11 -424.88,-1898.29 -595.88,-2955.02 -92.53,1165.58 -83.84,2261.51 -27.06,3428.74 148.95,1558.39 310.97,3114.7 447.56,4674.35 72.15,825.73 115.58,1712.7 -753.86,1744 -710.43,25.84 -781.9,-717.7 -852.71,-1428.71 -122.92,-1232.28 -197.41,-2605.54 -314.97,-3853.27 -117.58,1247.73 -192.06,2620.99 -314.98,3853.27 -70.81,711.01 -142.28,1454.57 -852.72,1428.71 -869.44,-31.28 -826,-918.27 -753.53,-1744 136.28,-1559.65 298.26,-3115.96 447.24,-4674.35 56.79,-1167.25 65.79,-2263.16 -27.05,-3428.74 -171.02,1056.73 -292.93,1575.91 -595.88,2955.02 -164.67,750.21 -1168.37,404.5 -1063.82,-324.87 197.39,-1376.18 463.94,-3025.47 772.23,-4722.75 107.22,-589.66 651.32,-687.68 1238.85,-693.92l-0.02 0z"/>
    </g>
    <g>
     <path fill="#858B79" d="M26621.4 27004.25c760.55,0 1377.45,770.23 1377.45,1719.78 0,949.98 -616.92,1719.78 -1377.45,1719.78 -760.89,0 -1377.46,-769.8 -1377.46,-1719.78 0,-949.55 616.57,-1719.78 1377.46,-1719.78zm-913.19 2386.19c594.54,200.58 1198.77,214.76 1783.63,-36.28 -657.67,776.91 -1076.19,820.71 -1783.63,36.28z"/>
     <path fill="#858B79" d="M25471.74 30824.99l1141.31 -12.52 0 0 8.35 0 8.69 0 0 0 1140.98 12.52c587.52,6.24 1131.62,104.26 1238.84,693.92 308.29,1697.26 575.17,3346.57 772.25,4722.75 104.53,729.37 -898.83,1075.08 -1063.83,324.87 -302.96,-1379.11 -424.55,-1898.29 -595.88,-2955.02 -92.53,1165.58 -83.51,2261.51 -27.06,3428.74 149.3,1558.39 310.97,3114.7 447.58,4674.35 72.15,825.73 115.89,1712.7 -753.53,1744 -710.45,25.84 -782.25,-717.7 -853.08,-1428.71 -122.57,-1232.28 -197.39,-2605.54 -314.96,-3853.27 -117.56,1247.73 -192.07,2620.99 -314.64,3853.27 -70.81,711.01 -142.62,1454.57 -853.08,1428.71 -869.42,-31.28 -825.67,-918.27 -753.53,-1744 136.61,-1559.65 298.28,-3115.96 447.58,-4674.35 56.43,-1167.25 65.47,-2263.16 -27.06,-3428.74 -171.33,1056.73 -292.91,1575.91 -596.21,2955.02 -164.65,750.21 -1168.02,404.5 -1063.82,-324.87 197.4,-1376.18 463.95,-3025.47 772.57,-4722.75 107.21,-589.66 650.98,-687.68 1238.51,-693.92l0.02 0z"/>
    </g>
    <g>
     <path fill="#858B79" d="M31883.74 27004.25c760.55,0 1377.12,770.23 1377.12,1719.78 0,949.98 -616.57,1719.78 -1377.12,1719.78 -760.88,0 -1377.46,-769.8 -1377.46,-1719.78 0,-949.55 616.58,-1719.78 1377.46,-1719.78zm-860.4 2386.19c594.87,200.58 1199.09,214.76 1783.94,-36.28 -657.65,776.91 -1076.51,820.71 -1783.94,36.28z"/>
     <path fill="#858B79" d="M30734.08 30824.99l1141.31 -12.52 0 0 8.35 0 8.69 0 0 0 1140.98 12.52c587.52,6.24 1131.62,104.26 1238.84,693.92 308.29,1697.26 575.17,3346.57 772.25,4722.75 104.53,729.37 -898.83,1075.08 -1063.83,324.87 -302.96,-1379.11 -424.86,-1898.29 -595.88,-2955.02 -92.53,1165.58 -83.84,2261.51 -27.06,3428.74 149.3,1558.39 310.97,3114.7 447.58,4674.35 72.15,825.73 115.9,1712.7 -753.53,1744 -710.78,25.84 -782.25,-717.7 -853.08,-1428.71 -122.57,-1232.28 -197.39,-2605.54 -314.96,-3853.27 -117.56,1247.73 -192.07,2620.99 -314.64,3853.27 -70.81,711.01 -142.62,1454.57 -853.08,1428.71 -869.42,-31.28 -825.67,-918.27 -753.53,-1744 136.28,-1559.65 298.28,-3115.96 447.59,-4674.35 56.43,-1167.25 65.46,-2263.16 -27.07,-3428.74 -171.33,1056.73 -292.91,1575.91 -596.2,2955.02 -164.66,750.21 -1168.03,404.5 -1063.83,-324.87 197.41,-1376.18 463.96,-3025.47 772.57,-4722.75 107.21,-589.66 650.98,-687.68 1238.51,-693.92l0.02 0z"/>
    </g>
    <path fill="#858B79" d="M-5150.38 23596.77c2183.11,64.65 3976.73,1341.99 4346.82,3010.49 -710.43,-410.77 -1479,-422.87 -2310.69,0 -668.03,-295.26 -1342.38,-454.97 -2023.11,-479.57l25.05 4892.89c0,792.75 -140.28,1378.66 -722.79,1399.94 -380.12,13.76 -688.73,-356.55 -688.73,-831.53 0,-475 495.66,-430.77 523.73,-7.1 26.73,406.17 392.8,333.62 392.8,-156.39l0 -5293.22c-650.66,35.43 -1307.32,193.9 -1969.33,474.98 -755.19,-470.82 -1510.4,-438.7 -2265.59,0 363.72,-1639.72 2102.58,-2902.05 4234.92,-3005.89l0 -348.22c0,-156.39 102.21,-284.41 227.45,-284.41l0 0c125.26,0 227.14,128.02 227.8,284.41l1.67 343.62z"/>
   </g>
   <g id="_1507725291568">
    <path fill="white" d="M-2001.65 27422.93c760.87,0 1377.46,770.24 1377.46,1719.79 0,183.51 -23.05,359.89 -65.47,525.46 -471.97,117.58 -952.27,75.89 -1426.89,-84.25 522.05,579.24 887.11,706.85 1306.65,422.03 -238.49,512.1 -682.72,856.54 -1191.75,856.54 -760.55,0 -1377.14,-769.8 -1377.14,-1719.78 0,-949.57 616.59,-1719.79 1377.14,-1719.79z"/>
    <path fill="white" d="M-3150.99 31243.68c781.92,-8.77 1517.74,-8.77 2299.32,0 587.53,6.26 1131.63,103.83 1238.85,693.92 308.29,1697.28 575.17,3346.59 772.25,4722.77 104.53,729.37 -898.83,1075.08 -1063.83,324.85 -302.96,-1379.09 -424.88,-1898.27 -595.88,-2955 -92.53,1165.15 -83.84,2261.49 -27.06,3428.72 148.96,1558.41 310.97,3114.31 447.56,4674.37 72.15,825.7 115.91,1712.7 -753.85,1743.98 -710.44,25.86 -781.91,-717.7 -852.72,-1428.71 -122.92,-1232.29 -197.41,-2605.54 -314.97,-3853.25 -117.57,1247.71 -192.06,2620.96 -314.98,3853.25 -70.81,711.01 -142.28,1454.57 -852.72,1428.71 -869.43,-31.28 -826,-918.28 -753.52,-1743.98 136.27,-1560.08 298.26,-3115.98 447.23,-4674.37 56.79,-1167.23 65.8,-2263.59 -26.73,-3428.72 -115.89,715.6 -242.14,1967.49 -917.52,2126.8 -759.88,179.33 -1376.45,-1980 -1652.03,-2718.12 -250.5,-671.42 648.34,-1326.55 961.64,-654.31 109.55,234.79 226.46,643.46 327.32,964.17 139.62,444.54 131.61,481.23 182.04,0 53.79,-510.85 105.2,-1228.55 211.11,-1811.14 106.89,-589.66 650.97,-687.66 1238.5,-693.92l-0.01 -0.02z"/>
    <path fill="white" d="M10676.05 27422.93c760.88,0 1377.47,770.24 1377.47,1719.79 0,949.98 -616.59,1719.78 -1377.47,1719.78 -760.54,0 -1377.13,-769.8 -1377.13,-1719.78 0,-949.57 616.59,-1719.79 1377.13,-1719.79zm-871.09 2386.2c594.55,200.57 1198.77,214.76 1783.62,-36.69 -657.32,777.32 -1076.18,821.09 -1783.62,36.69z"/>
    <path fill="white" d="M9526.72 31243.68l1141.32 -12.52 0 0 8.34 0 8.69 0 0 0 1140.99 12.52c587.51,6.26 1131.63,103.83 1238.85,693.92 308.29,1697.28 575.15,3346.59 772.23,4722.77 104.55,729.37 -898.83,1075.08 -1063.83,324.85 -302.94,-1379.09 -424.86,-1898.27 -595.88,-2955 -92.52,1165.15 -83.83,2261.49 -27.04,3428.72 148.96,1558.41 310.96,3114.31 447.56,4674.37 72.15,825.7 115.9,1712.7 -753.85,1743.98 -710.44,25.86 -781.93,-717.7 -852.74,-1428.71 -122.92,-1232.29 -197.39,-2605.54 -314.96,-3853.25 -117.56,1247.71 -192.07,2620.96 -314.97,3853.25 -70.81,711.01 -142.29,1454.57 -852.73,1428.71 -869.42,-31.28 -826.01,-918.28 -753.53,-1743.98 136.28,-1560.08 298.28,-3115.98 447.25,-4674.37 56.78,-1167.23 65.8,-2263.59 -27.06,-3428.72 -171.02,1056.71 -292.92,1575.91 -595.88,2955 -164.98,750.23 -1168.36,404.52 -1063.83,-324.85 197.41,-1376.18 463.94,-3025.49 772.25,-4722.77 107.2,-590.09 651.32,-687.66 1238.84,-693.92l-0.02 0z"/>
    <g>
     <path fill="white" d="M15994.51 27422.93c760.88,0 1377.46,770.24 1377.46,1719.79 0,949.98 -616.58,1719.78 -1377.46,1719.78 -760.87,0 -1377.46,-769.8 -1377.46,-1719.78 0,-949.57 616.59,-1719.79 1377.46,-1719.79zm-875.11 2386.2c594.54,200.57 1198.76,214.76 1783.63,-36.69 -657.34,777.32 -1076.2,821.09 -1783.63,36.69z"/>
     <path fill="white" d="M14845.18 31243.68l1140.98 -12.52 0 0 8.69 0 8.35 0 0 0 1141.31 12.52c587.52,6.26 1131.64,103.83 1238.51,693.92 308.64,1697.28 575.17,3346.59 772.58,4722.77 104.2,729.37 -899.16,1075.08 -1063.83,324.85 -302.96,-1379.09 -424.86,-1898.27 -596.21,-2955 -92.53,1165.15 -83.51,2261.49 -26.73,3428.72 148.97,1558.41 310.97,3114.31 447.25,4674.37 72.48,825.7 115.9,1712.7 -753.53,1743.98 -710.43,25.86 -781.92,-717.7 -852.73,-1428.71 -122.92,-1232.29 -197.41,-2605.54 -314.97,-3853.25 -117.57,1247.71 -192.06,2620.96 -314.96,3853.25 -70.81,711.01 -142.3,1454.57 -852.74,1428.71 -869.76,-31.28 -826,-918.28 -753.85,-1743.98 136.6,-1560.08 298.61,-3115.98 447.56,-4674.37 56.8,-1167.23 65.49,-2263.59 -27.04,-3428.72 -171.02,1056.71 -292.94,1575.91 -595.88,2955 -165,750.23 -1168.38,404.52 -1063.83,-324.85 197.06,-1376.18 463.94,-3025.49 772.25,-4722.77 107.2,-590.09 651.32,-687.66 1238.84,-693.92l-0.02 0z"/>
    </g>
    <g>
     <path fill="white" d="M21291.92 27422.93c760.89,0 1377.46,770.24 1377.46,1719.79 0,949.98 -616.57,1719.78 -1377.46,1719.78 -760.55,0 -1377.45,-769.8 -1377.45,-1719.78 0,-949.57 616.92,-1719.79 1377.45,-1719.79zm-914.17 2386.2c594.52,200.57 1198.75,214.76 1783.61,-36.69 -657.32,777.32 -1076.18,821.09 -1783.61,36.69z"/>
     <path fill="white" d="M20142.59 31243.68l1141.32 -12.52 0 0 8.34 0 8.69 0 0 0 1140.99 12.52c587.52,6.26 1131.62,103.83 1238.84,693.92 308.29,1697.28 575.17,3346.59 772.24,4722.77 104.53,729.37 -898.82,1075.08 -1063.82,324.85 -302.97,-1379.09 -424.88,-1898.27 -595.88,-2955 -92.53,1165.15 -83.84,2261.49 -27.06,3428.72 148.95,1558.41 310.97,3114.31 447.56,4674.37 72.15,825.7 115.58,1712.7 -753.86,1743.98 -710.43,25.86 -781.9,-717.7 -852.71,-1428.71 -122.92,-1232.29 -197.41,-2605.54 -314.97,-3853.25 -117.58,1247.71 -192.06,2620.96 -314.98,3853.25 -70.81,711.01 -142.28,1454.57 -852.72,1428.71 -869.44,-31.28 -826,-918.28 -753.53,-1743.98 136.28,-1560.08 298.26,-3115.98 447.24,-4674.37 56.79,-1167.23 65.79,-2263.59 -27.05,-3428.72 -171.02,1056.71 -292.93,1575.91 -595.88,2955 -164.67,750.23 -1168.37,404.52 -1063.82,-324.85 197.39,-1376.18 463.94,-3025.49 772.23,-4722.77 107.22,-590.09 651.32,-687.66 1238.85,-693.92l-0.02 0z"/>
    </g>
    <g>
     <path fill="white" d="M26621.4 27422.93c760.55,0 1377.45,770.24 1377.45,1719.79 0,949.98 -616.92,1719.78 -1377.45,1719.78 -760.89,0 -1377.46,-769.8 -1377.46,-1719.78 0,-949.57 616.57,-1719.79 1377.46,-1719.79zm-913.19 2386.2c594.54,200.57 1198.77,214.76 1783.63,-36.69 -657.67,777.32 -1076.19,821.09 -1783.63,36.69z"/>
     <path fill="white" d="M25471.74 31243.68l1141.31 -12.52 0 0 8.35 0 8.69 0 0 0 1140.98 12.52c587.52,6.26 1131.62,103.83 1238.84,693.92 308.29,1697.28 575.17,3346.59 772.25,4722.77 104.53,729.37 -898.83,1075.08 -1063.83,324.85 -302.96,-1379.09 -424.55,-1898.27 -595.88,-2955 -92.53,1165.15 -83.51,2261.49 -27.06,3428.72 149.3,1558.41 310.97,3114.31 447.58,4674.37 72.15,825.7 115.89,1712.7 -753.53,1743.98 -710.45,25.86 -782.25,-717.7 -853.08,-1428.71 -122.57,-1232.29 -197.39,-2605.54 -314.96,-3853.25 -117.56,1247.71 -192.07,2620.96 -314.64,3853.25 -70.81,711.01 -142.62,1454.57 -853.08,1428.71 -869.42,-31.28 -825.67,-918.28 -753.53,-1743.98 136.61,-1560.08 298.28,-3115.98 447.58,-4674.37 56.43,-1167.23 65.47,-2263.59 -27.06,-3428.72 -171.33,1056.71 -292.91,1575.91 -596.21,2955 -164.65,750.23 -1168.02,404.52 -1063.82,-324.85 197.4,-1376.18 463.95,-3025.49 772.57,-4722.77 107.21,-590.09 650.98,-687.66 1238.51,-693.92l0.02 0z"/>
    </g>
    <g>
     <path fill="white" d="M31883.74 27422.93c760.55,0 1377.12,770.24 1377.12,1719.79 0,949.98 -616.57,1719.78 -1377.12,1719.78 -760.88,0 -1377.46,-769.8 -1377.46,-1719.78 0,-949.57 616.58,-1719.79 1377.46,-1719.79zm-860.4 2386.2c594.87,200.57 1199.09,214.76 1783.94,-36.69 -657.65,777.32 -1076.51,821.09 -1783.94,36.69z"/>
     <path fill="white" d="M30734.08 31243.68l1141.31 -12.52 0 0 8.35 0 8.69 0 0 0 1140.98 12.52c587.52,6.26 1131.62,103.83 1238.84,693.92 308.29,1697.28 575.17,3346.59 772.25,4722.77 104.53,729.37 -898.83,1075.08 -1063.83,324.85 -302.96,-1379.09 -424.86,-1898.27 -595.88,-2955 -92.53,1165.15 -83.84,2261.49 -27.06,3428.72 149.3,1558.41 310.97,3114.31 447.58,4674.37 72.15,825.7 115.9,1712.7 -753.53,1743.98 -710.78,25.86 -782.25,-717.7 -853.08,-1428.71 -122.57,-1232.29 -197.39,-2605.54 -314.96,-3853.25 -117.56,1247.71 -192.07,2620.96 -314.64,3853.25 -70.81,711.01 -142.62,1454.57 -853.08,1428.71 -869.42,-31.28 -825.67,-918.28 -753.53,-1743.98 136.28,-1560.08 298.28,-3115.98 447.59,-4674.37 56.43,-1167.23 65.46,-2263.59 -27.07,-3428.72 -171.33,1056.71 -292.91,1575.91 -596.2,2955 -164.66,750.23 -1168.03,404.52 -1063.83,-324.85 197.41,-1376.18 463.96,-3025.49 772.57,-4722.77 107.21,-590.09 650.98,-687.66 1238.51,-693.92l0.02 0z"/>
    </g>
    <path fill="white" d="M-5150.38 24015.46c2183.11,64.24 3976.73,1341.99 4346.82,3010.49 -710.43,-410.77 -1479,-422.87 -2310.69,0 -668.03,-295.26 -1342.38,-454.97 -2023.11,-479.57l25.05 4892.46c0,793.18 -140.28,1379.08 -722.79,1400.35 -380.12,13.76 -688.73,-356.55 -688.73,-831.53 0,-475 495.66,-430.77 523.73,-7.1 26.73,406.17 392.8,333.62 392.8,-156.39l0 -5293.63c-650.66,35.84 -1307.32,194.33 -1969.33,475.41 -755.19,-470.82 -1510.4,-438.71 -2265.59,0 363.72,-1639.74 2102.58,-2902.07 4234.92,-3005.9l0 -348.21c0,-156.39 102.21,-284.41 227.45,-284.41l0 0c125.26,0 227.14,128.02 227.8,284.41l1.67 343.62z"/>
   </g>
  </g>
 </g>
</svg>
